<?xml version="1.0" standalone="no"?>
<!DOCTYPE svg PUBLIC "-//W3C//DTD SVG 1.1//EN" "http://www.w3.org/Graphics/SVG/1.1/DTD/svg11.dtd" >
<svg xmlns="http://www.w3.org/2000/svg">
<metadata>Generated by IcoMoon</metadata>
<defs>
<font id="icomoon" horiz-adv-x="1024">
<font-face units-per-em="1024" ascent="960" descent="-64" />
<missing-glyph horiz-adv-x="1024" />
<glyph unicode="&#x20;" horiz-adv-x="512" d="" />
<glyph unicode="&#xe070;" glyph-name="close" d="M512-64c-247.424 0-448 200.576-448 448 0 178.368 105.024 330.624 256 402.304v-147.648c-77.376-58.304-128-150.272-128-254.656 0-176.704 143.296-320 320-320s320 143.296 320 320c0 104.384-50.624 196.352-128 254.656v147.648c150.976-71.744 256-224 256-402.304 0-247.424-200.576-448-448-448zM576 512c0-35.328-28.672-64-64-64s-64 28.608-64 64v384c0 35.328 28.672 64 64 64s64-28.672 64-64v-384z" />
<glyph unicode="&#xe094;" glyph-name="prev" d="M593.848 430.86l406.268 400.368-98.346 79.6-473.465-484.824 508.749-470.775 80.884 90.839zM171.563 429.455l406.308 400.368-98.426 79.6-473.465-484.865 508.749-470.735 80.924 90.839z" />
<glyph unicode="&#xe095;" glyph-name="next" d="M436.093 439.972l-408.958-397.638 97.864-80.242 476.676 481.653-505.537 474.147-81.527-90.318zM858.418 439.972l-408.958-397.638 97.824-80.242 476.716 481.653-505.537 474.147-81.567-90.318z" />
<glyph unicode="&#xe0f2;" glyph-name="download" d="M894.683 448.004h-159.451l-223.234-223.222-223.231 223.222h-159.452l-127.562-255.112v-63.779h1020.494v63.779zM1.752 65.337h1020.494v-63.781h-1020.494v63.781zM799.013 639.331h-223.234v255.113h-127.561v-255.113h-223.232l287.012-286.993z" />
<glyph unicode="&#xe1ff;" glyph-name="thumb" d="M64 896h407.27v-407.27h-407.27v407.27zM552.73 896h407.27v-407.27h-407.27v407.27zM64 407.27h407.27v-407.27h-407.27v407.27zM552.73 407.27h407.27v-407.27h-407.27v407.27z" />
<glyph unicode="&#xe20c;" glyph-name="fullscreen" d="M768-64v63.982h192.005v191.956h63.994l-0.388-255.372-255.611-0.566zM960.005 895.763h-192.005v63.987l255.611 0.25 0.388-256.192h-63.994v191.955zM64.001 703.808h-63.999v255.941h256.002v-63.987h-192.003v-191.955zM128 831.778h767.999v-767.809h-767.999v767.809zM192.003 127.953h639.997v639.838h-639.997v-639.838zM256.003 703.808h511.997v-511.87h-511.997v511.87zM64.001-0.018h192.003v-63.982l-255.693 0.566-0.309 255.372h63.999v-191.956z" />
<glyph unicode="&#xe311;" glyph-name="in" d="M852.687-6.232h-681.376c-62.715 0-113.563 50.846-113.563 113.558v681.349c0 62.712 50.848 113.558 113.563 113.558h681.377c62.715 0 113.563-50.846 113.563-113.558v-681.349c-0.001-62.712-50.848-113.558-113.564-113.558zM909.47 788.675c0 31.356-25.424 56.779-56.781 56.779h-681.377c-31.357 0-56.781-25.423-56.781-56.779v-681.349c0-31.357 25.424-56.779 56.781-56.779h681.377c31.358 0 56.781 25.423 56.781 56.779v681.349zM824.298 476.39c-15.665 0-28.391 12.697-28.391 28.39l0.887 186.639-192.691-192.682-40.146 40.144 193.024 193.016h-188.199c-15.693 0-28.391 12.697-28.391 28.39s12.698 28.39 28.391 28.39h254.711c7.93 0 15.082-3.272 20.239-8.539 5.49-4.657 8.955-11.45 8.955-19.85v-255.506c0-15.692-12.698-28.39-28.39-28.39zM455.219 107.326h-254.712c-7.93 0-15.082 3.27-20.24 8.538-5.489 4.658-8.955 11.423-8.955 19.85v255.506c0 15.692 12.726 28.39 28.391 28.39 15.692 0 28.391-12.697 28.391-28.39l-0.887-186.666 192.69 192.71 40.174-40.143-193.051-193.016h188.199c15.692 0 28.391-12.697 28.391-28.39s-12.698-28.39-28.39-28.39z" />
<glyph unicode="&#xe312;" glyph-name="out" d="M960.256 896.73c-7.944 7.96-18.502 12.344-29.728 12.344h-485.19v-47.362h479.86v-465.288h47.364v470.62c-0.002 11.222-4.37 21.762-12.306 29.686zM98.812 514.948h-47.364v-485.99c0-11.22 4.37-21.766 12.31-29.694 7.94-7.958 18.494-12.34 29.722-12.34h453.182v47.364h-447.85v480.66zM202.086 715.17l1.22-1.404 38.706-38.708 14.238-14.048 112.042-112.042h-169.098v-60h222.122c27.57 0 50 22.43 50 50v221.97h-60v-168.514l-307.694 307.698c-5.774 5.774-13.452 8.954-21.62 8.954-8.166 0-15.848-3.182-21.626-8.958-11.918-11.922-11.918-31.32 0.002-43.242l141.708-141.706zM789.932 196.188l-1.23 1.412-38.716 38.714-14.232 14.050-112.042 112.038h169.36v60h-222.39c-27.57 0-50-22.43-50-50v-221.96h60v168.5l307.686-307.688c5.778-5.78 13.458-8.96 21.628-8.96s15.85 3.182 21.626 8.958c11.914 11.92 11.912 31.316-0.002 43.24l-141.688 141.696z" />
<glyph unicode="&#xe900;" glyph-name="axure" d="M0 959.936h1023.648v-219.355h-1023.648v219.355zM414.335 644.739h609.314v-705.188h-609.314v705.188zM0 644.739h316.829v-705.188h-316.829v705.188z" />
<glyph unicode="&#xe901;" glyph-name="bootstrap" d="M853.333 949.961c42.667 0 82.991-16.732 113.443-47.184s47.184-70.776 47.184-113.443v-682.667c0-42.667-16.732-82.991-47.184-113.443s-70.776-47.184-113.443-47.184h-682.667c-42.667 0-82.991 16.732-113.443 47.184s-47.184 70.776-47.184 113.443v682.667c0 42.667 16.732 82.991 47.184 113.443s70.776 47.184 113.443 47.184h682.667zM853.333 960h-682.667c-93.867 0-170.667-76.8-170.667-170.667v-682.667c0-93.867 76.8-170.667 170.667-170.667h682.667c93.867 0 170.667 76.8 170.667 170.667v682.667c0 93.867-76.8 170.667-170.667 170.667v0zM278.254 737.464h290.301c53.542 0 96.544-12.214 128.837-36.81s48.523-61.574 48.523-111.268c0-30.118-7.362-55.885-22.086-77.302s-35.807-38.149-63.247-49.861v-1.673c36.81-7.864 64.753-25.265 83.66-52.204 18.907-27.106 28.444-60.905 28.444-101.731 0-23.425-4.183-45.344-12.549-65.59-8.366-20.413-21.417-37.982-39.32-52.706s-40.659-26.437-68.601-35.137-61.072-13.051-99.556-13.051h-274.405v597.333zM382.829 487.32h170.667c25.098 0 46.013 7.027 62.745 21.417s25.098 34.803 25.098 61.574c0 30.118-7.529 51.367-22.588 63.582s-36.81 18.405-65.255 18.405h-170.667v-164.978zM382.829 225.464h184.889c31.791 0 56.554 8.199 73.956 24.763 17.569 16.397 26.437 39.822 26.437 69.94 0 29.616-8.701 52.204-26.437 68.267s-42.165 23.759-73.956 23.759h-184.889v-186.729z" />
<glyph unicode="&#xe902;" glyph-name="Git" d="M511.82 944.53c-281.24 0-509.264-228.022-509.264-509.264 0-225.032 145.905-415.879 348.274-483.23 25.463-4.71 34.821 11.076 34.821 24.508 0 12.16-0.51 52.264-0.7 94.787-141.703-30.81-171.559 60.094-171.559 60.094-23.172 58.884-56.528 74.544-56.528 74.544-46.216 31.638 3.5 30.937 3.5 30.937 51.118-3.565 78.045-52.454 78.045-52.454 45.452-77.855 119.168-55.32 148.196-42.334 4.583 32.912 17.76 55.383 32.339 68.115-113.12 12.859-232.034 56.528-232.034 251.704 0 55.574 19.925 101.026 52.455 136.674-5.284 12.86-22.726 64.613 4.901 134.765 0 0 42.779 13.686 140.112-52.2 40.614 11.267 84.156 16.932 127.444 17.124 43.288-0.192 86.893-5.857 127.571-17.124 97.206 65.886 139.921 52.2 139.921 52.2 27.692-70.152 10.313-121.97 5.029-134.765 32.656-35.649 52.39-81.1 52.39-136.674 0-195.62-119.168-238.654-232.543-251.258 18.27-15.788 34.566-46.789 34.566-94.278 0-68.115-0.573-122.988-0.573-139.73 0-13.559 9.167-29.41 35.012-24.444 202.242 67.414 347.956 258.26 347.956 483.165 0 281.242-228.023 509.266-509.266 509.266l-0.063-0.126z" />
<glyph unicode="&#xe903;" glyph-name="html" d="M869.561-32.952l-0.448-0.256-0.768-0.32c-16.004-18.693-38.474-30.408-63.12-30.408h-586.387c-24.646 0-47.116 11.715-63.632 30.728v0.256l-0.256-0.256c-16.516 19.205-26.567 46.028-26.567 74.771v812.875c0 28.807 10.051 55.054 26.567 74.003 16.772 19.333 39.178 31.56 63.888 31.56h399.588c8.898 0 17.732-4.737 23.942-11.715l243.453-284.679c6.722-8.386 9.794-18.181 9.794-28.487v-593.62c0-28.679-10.051-54.926-26.055-74.451zM396.803 441.086c11.843 8.386 15.812 27.271 8.514 40.522-6.978 14.34-23.046 18.885-34.889 10.499l-168.298-114.973c-15.492-11.523-16.068-39.114 0-50.701l168.234-115.293c11.843-8.386 27.911-4.161 34.889 10.115 7.298 13.955 3.329 32.136-8.514 40.522l-131.105 90.135 131.169 89.174zM584.498 573.919c-13.315 5.953-27.975-1.728-33.416-16.772l-130.593-389.793c-5.185-14.66 1.216-32.136 14.276-38.090 13.699-6.274 28.231 1.408 33.736 16.772l130.593 390.114c4.865 14.66-1.856 31.496-14.596 37.769zM614.266 481.608c-7.298-13.251-3.649-32.136 8.514-40.522l131.169-89.174-131.169-90.199c-12.163-8.386-15.812-26.567-8.514-40.522 7.298-14.34 23.11-18.565 34.953-10.115l167.594 115.293c17.348 11.587 16.708 39.178 0 50.701l-167.594 115.037c-11.843 8.386-27.655 3.841-34.953-10.499zM640.384 833.12v-148.709c0-11.651 4.993-22.918 12.035-30.664l0.896-1.216c8.258-8.322 19.717-13.379 32.072-13.379h146.853l-191.856 193.968z" />
<glyph unicode="&#xe904;" glyph-name="jquery" d="M825.745 444.662c-21.852-39.893-40.803-70.299-56.856-91.214s-29.094-32.259-39.116-34.026c-5.524-0.974-10.161-0.034-13.913 2.814-3.748 2.852-6.145 7.233-7.186 13.142-2.47 14.007 5.060 31.234 22.587 51.682 17.525 20.45 42.014 39.937 73.461 58.466l5.876 15.147c-5.657-5.503-11.498-9.946-17.525-13.325-6.031-3.38-12-5.594-17.91-6.636-5.782-1.019-10.758-0.241-14.921 2.339-4.165 2.575-6.7 6.436-7.606 11.576-1.088 6.168 0.115 13.437 3.608 21.804s9.016 17.057 16.568 26.076c2.055 2.614 4.887 6.095 8.493 10.441 10.842 12.907 16.114 20.198 15.819 21.869-0.158 0.897-0.712 1.596-1.661 2.093-0.95 0.493-2.001 0.641-3.157 0.437-2.058-0.362-4.999-1.909-8.822-4.637-3.825-2.73-8.015-6.217-12.564-10.463-6.887-6.779-13.511-14.108-19.873-21.988s-10.12-11.92-11.278-12.124c-0.772-0.136-1.604 0.080-2.499 0.651-0.895 0.57-1.413 1.242-1.549 2.014-0.226 1.282 1.194 4.118 4.265 8.503 3.069 4.383 7.214 9.422 12.44 15.113 10.212 11.207 19.272 19.761 27.175 25.659 7.905 5.897 14.874 9.381 20.914 10.446 4.112 0.725 7.604 0.080 10.476-1.93 2.87-2.013 4.682-5.137 5.431-9.378 0.816-4.626 0.040-9.632-2.322-15.017-2.364-5.386-7.76-13.859-16.188-25.412-3.010-3.979-7.036-9.323-12.078-16.042-11.589-15.427-17.123-24.618-16.603-27.572 0.399-1.52 1.423-2.631 3.072-3.334 1.645-0.703 3.562-0.863 5.748-0.477 4.367 0.77 9.151 3.136 14.35 7.102 5.195 3.962 10.678 9.5 16.449 16.613l47.208 58.010c4.686 5.725 9.322 11.184 13.909 16.365 4.583 5.18 9.13 10.021 13.636 14.527l4.819 0.85c3.341 0.588 5.733 0.744 7.172 0.47 1.44-0.277 2.274-1.058 2.499-2.341 0.204-1.157-7.808-13.203-24.035-36.137-16.229-22.934-31.326-47.030-45.289-72.28 12.101 4.251 23.33 9.709 33.682 16.374 10.353 6.66 20.961 15.253 31.825 25.783 6.781 6.627 13.438 13.961 19.97 22.004 6.532 8.040 10.31 12.153 11.339 12.335 1.027 0.181 1.85 0.028 2.466-0.459s1.089-1.298 1.423-2.431c0.318-1.803-1.787-5.65-6.312-11.548-4.525-5.9-10.824-13.007-18.898-21.319-11.984-12.449-24.312-22.74-36.988-30.869-12.674-8.129-26.519-14.712-41.532-19.744zM798.362 430.89c-27.139-18.168-47.742-35.449-61.811-51.844-14.068-16.392-20.151-29.986-18.249-40.78 0.612-3.471 1.953-6.18 4.018-8.136 2.068-1.951 4.324-2.716 6.763-2.285 6.683 1.178 15.541 9.93 26.575 26.25 11.033 16.323 25.268 41.919 42.704 76.795zM212.925 462.727c-3.132-6.882-4.777-11.884-4.777-11.884s-18.838-6.571-26.484-12.474c-10.075-35.944-20.094-62.785-30.044-80.522-9.951-17.741-20.634-28.091-32.052-31.058-5.958-1.546-10.812-1.351-14.55 0.587-3.738 1.941-6.318 5.64-7.735 11.094-2.968 11.422 1.409 25.93 13.122 43.529 11.713 17.604 29.343 35.88 52.893 54.831 3.774 13.705 7.32 25.789 10.643 36.257 3.324 10.459 6.65 20.274 9.986 29.445-5.383-6.682-10.839-14.006-16.378-21.968-5.531-7.962-8.808-12.072-9.818-12.335-0.504-0.133-1.057 0.019-1.656 0.458-0.599 0.435-0.991 1.010-1.175 1.718-0.63 2.423 2.878 8.859 10.514 19.311 7.641 10.452 17.392 21.69 29.257 33.727 0.885 0.333 1.825 0.658 2.822 0.975 0.995 0.309 2.102 0.626 3.311 0.943 3.637 0.943 6.776 1.327 9.406 1.151 2.638-0.184 4.087-0.775 4.349-1.785 0.079-0.302-3.425-8.413-10.506-24.325-7.085-15.917-13.459-32.698-19.118-50.345zM159.932 423.017c-18.751-15.008-33.094-30.486-43.021-46.442-9.931-15.951-13.665-28.678-11.196-38.179 0.708-2.724 2.055-4.583 4.036-5.582 1.988-0.991 4.545-1.085 7.677-0.27 7.375 1.915 14.519 10.217 21.44 24.9 6.917 14.688 13.939 36.542 21.064 65.572zM481.926 470.475h26.963l-12.306-59.095c-1.504-7.078-2.255-11.493-2.255-13.246 0-2.882 1.064-5.355 3.195-7.422 2.128-2.068 4.853-3.101 8.173-3.101 2.379 0 4.728 0.453 7.046 1.362 2.317 0.908 4.697 2.286 7.141 4.134 2.443 1.847 4.634 3.96 6.577 6.341 1.94 2.379 3.758 5.511 5.448 9.395 1.189 2.88 2.473 7.578 3.853 14.092l9.958 47.539h26.964l-20.857-99.773h-25.177l2.818 13.529c-11.024-10.586-23.017-15.878-35.983-15.878-8.206 0-14.656 2.348-19.354 7.046-4.697 4.697-7.045 10.991-7.045 18.883 0 3.443 1.064 10.302 3.194 20.575l11.648 55.618zM666.309 412.226h-67.644c-0.063-1.065-0.094-1.879-0.094-2.443 0-6.639 1.894-11.995 5.684-16.065 3.788-4.072 8.409-6.107 13.857-6.107 8.956 0 15.939 4.635 20.951 13.905l24.145-4.039c-4.697-9.709-10.977-16.991-18.836-21.843-7.861-4.855-16.676-7.281-26.447-7.281-13.404 0-24.301 4.243-32.694 12.729s-12.59 19.714-12.59 33.681c0 13.653 3.789 25.804 11.368 36.452 10.334 14.405 25.084 21.608 44.25 21.608 12.213 0 21.92-3.774 29.124-11.321 7.201-7.548 10.804-18.118 10.804-31.708 0-6.513-0.627-12.37-1.879-17.568zM643.574 428.668c0.061 1.188 0.094 2.098 0.094 2.725 0 7.39-1.661 12.933-4.979 16.629-3.321 3.695-7.767 5.543-13.341 5.543-5.575 0-10.569-2.1-14.985-6.294-4.415-4.198-7.407-10.398-8.972-18.602h42.184zM685.908 470.475h25.177l-4.040-19.354c9.396 14.469 19.573 21.702 30.533 21.702 3.883 0 8.047-0.972 12.496-2.912l-10.334-22.078c-2.444 0.876-5.043 1.315-7.798 1.315-4.636 0-9.349-1.754-14.139-5.261-4.792-3.509-8.535-8.191-11.228-14.046-2.693-5.857-5.354-15.142-7.986-27.856l-6.577-31.285h-26.962l20.857 99.774zM488.119 510.080c3.835 1.506 7.597 3.055 11.286 4.645l3.701 18.537h-9.784l1.149 5.755h9.784l3.021 15.125h6l-3.020-15.125h9.453l-1.149-5.755h-9.453l-3.119-15.619c3.255 1.48 6.46 2.987 9.616 4.521-0.383-2.74-0.602-4.932-0.657-6.577-3.44-1.589-6.883-3.179-10.322-4.768l-5.582-27.95c-1.116-5.589-4.086-8.522-8.909-8.796-2.214-0.108-4.658-0.136-7.333-0.082 0.207 2.137 0.333 4.412 0.377 6.823 2.587-0.219 4.73-0.33 6.428-0.33 1.973 0 3.168 1.042 3.584 3.124l4.818 24.128c-3.503-1.617-7.006-3.247-10.512-4.891l0.624 7.234zM536.717 515.917c-4.712-1.371-9.49-2.659-14.335-3.864l-2.167-10.851h13.235l-1.115-5.589h-13.235l-2.447-12.249h16.195l8.75 43.816h-23.84l1.181 5.919h23.84l1.938 9.7c-6.54-0.357-13.565-0.685-21.079-0.986 0.044 1.863 0.049 3.809 0.016 5.837 17.678 0.438 34.568 1.452 50.67 3.042l-0.031-5.919c-6.829-0.576-14.638-1.125-23.429-1.643l-2.003-10.029h25.813l-1.182-5.919h-25.813l-8.749-43.816h16.194l2.462 12.331h-13.070l1.116 5.589h13.070l2.248 11.261h-13.317l1.117 5.59h19.236l-8.98-44.967h-5.919l0.919 4.604h-38.472l-0.968-4.849h-5.836l8.667 43.405c6.378 1.48 12.268 3.26 17.672 5.344l1.645-5.755zM568.432 513.040c9.795 11.18 18.581 24.716 26.359 40.609l6.347-1.973c-3.303-6.385-6.69-12.372-10.164-17.962l-12.024-60.215h-6.494l9.316 46.652c-3.829-5.18-7.766-9.934-11.809-14.263-0.35 2.357-0.861 4.741-1.531 7.153zM592.191 508.108h28.525l4.154 20.799h-15.66c-3.396-5.893-6.873-11.153-10.426-15.783-1.283 1.534-2.802 2.986-4.556 4.357 7.033 9.15 12.911 19.372 17.631 30.662l6.282-1.891c-1.884-4.082-3.806-7.947-5.767-11.591h13.646l3.81 19.072h6.576l-3.809-19.072h19.646l-1.148-5.753h-19.646l-4.154-20.799h22.359l-1.149-5.754h-22.359l-5.746-28.772h-6.577l5.745 28.772h-28.525l1.149 5.753zM694.408 551.594l5.754 3.699c2.127-2.521 4.019-5.262 5.675-8.221l-4.003-2.548h33.992l-1.182-5.919h-66.176l-4.679-23.429c-3.709-18.852-10.128-33.019-19.256-42.501-1.019 1.754-2.209 3.617-3.569 5.59 7.539 7.836 12.878 19.756 16.019 35.759l6.091 30.499h35.637c-1.307 2.383-2.74 4.74-4.303 7.070zM661.38 494.462h31.155l1.741 8.713h-25.073l1.198 6.001c3.677 4.137 7.245 8.632 10.708 13.481h-11.96l1.182 5.92h14.838c1.955 2.932 3.863 5.973 5.726 9.125l6.379-1.808c-1.627-2.521-3.252-4.961-4.872-7.316h35.965l-1.182-5.92h-38.925c-3.496-4.877-6.96-9.399-10.395-13.564h17.592l2.085 10.441h6.577l-2.084-10.441h22.523l-1.181-5.918h-22.524l-1.74-8.713h26.552l-1.182-5.919h-26.552l-3.037-15.208h-6.577l3.037 15.208h-31.156l1.181 5.918zM317.769 484.227c-13.56 0-24.552-10.992-24.552-24.552s10.992-24.552 24.552-24.552 24.552 10.992 24.552 24.552c-0.001 13.56-10.993 24.552-24.552 24.552zM327.54 449.369c-6.641 0-12.026 5.384-12.026 12.026s5.384 12.026 12.026 12.026c6.641 0 12.026-5.384 12.026-12.026s-5.385-12.026-12.026-12.026zM374.389 482.975c-13.56 0-24.552-10.992-24.552-24.552s10.992-24.552 24.552-24.552c13.56 0 24.552 10.992 24.552 24.552s-10.992 24.552-24.552 24.552zM384.159 449.369c-6.641 0-12.026 5.384-12.026 12.026s5.384 12.026 12.026 12.026c6.641 0 12.026-5.384 12.026-12.026s-5.385-12.026-12.026-12.026zM686.298 358.678h-285.329c60.158 44.494 85.078 114.587 59.851 162.916-0.44 4.103-2.67 8.047-6.439 10.598-0.101 0.069-0.208 0.123-0.31 0.188-0.185 0.251-0.374 0.497-0.562 0.745 0.407 4.99-1.907 10.132-6.477 13.225-1.351 0.914-2.796 1.567-4.275 1.992-0.718 3.649-2.858 7.071-6.246 9.365-4.028 2.727-8.877 3.223-13.041 1.777-0.608 3.846-2.781 7.49-6.333 9.894-5.32 3.602-12.078 3.326-16.786-0.206-0.677 1.968-1.77 3.838-3.311 5.456-5.537 5.809-14.558 6.199-20.148 0.871-1.747-1.665-2.952-3.692-3.615-5.869-0.606 1.596-1.486 3.126-2.676 4.502-5.252 6.068-14.243 6.89-20.083 1.836-2.482-2.147-3.984-5.012-4.501-8.060-0.79 0.87-1.682 1.672-2.703 2.362-6.645 4.499-15.542 2.961-19.873-3.433-0.381-0.562-0.696-1.148-0.981-1.743-6.645 4.497-15.541 2.959-19.87-3.435-1.14-1.683-1.838-3.537-2.144-5.435-5.947 1.971-12.599 0.007-16.161-5.255-0.847-1.252-1.449-2.597-1.832-3.985-5.123 1.142-10.559-0.75-13.582-5.216-1.671-2.467-2.312-5.325-2.071-8.121-4.351 0.174-8.624-1.755-11.177-5.525-1.837-2.713-2.449-5.9-1.992-8.957-3.054-0.693-5.834-2.454-7.694-5.202-1.126-1.662-1.781-3.504-2.026-5.383-43.792-46.926-56.458-108.573-26.783-149.373 19.143-26.319 51.969-38.546 88.462-36.611h380.71v36.078zM435.905 478.584c0 0 0.554-17.323-19.237-29.312 0 0 10.366 33.18-9.392 53.034 0.001 0 25.666 2.223 28.629-23.722zM268.916 512.754c19.041 16.285 38.247-3.424 38.247-3.424s-13.276-8.853-23.466-18.957c-9.937-9.854-17.203-21.044-17.203-21.044s-16.618 27.14 2.422 43.425zM271.333 384.54c-23.831 26.346-14.286 73.812 21.319 106.019s83.788 36.959 107.619 10.614c23.832-26.346 14.286-73.812-21.319-106.019s-83.787-36.959-107.619-10.614zM374.613 329.434l3.443 24.865h2.936l-3.443-24.865h-2.936zM382.821 337.652c0.385 2.774 1.451 4.963 3.201 6.569s3.933 2.408 6.549 2.408c2.487 0 4.33-0.773 5.529-2.318 1.199-1.543 1.61-3.678 1.233-6.403-0.367-2.652-1.418-4.794-3.152-6.425-1.733-1.629-3.869-2.445-6.406-2.445-2.476 0-4.345 0.79-5.603 2.369-1.26 1.58-1.709 3.662-1.352 6.245zM385.828 337.742c-0.268-1.935 0.003-3.459 0.813-4.572s2.028-1.671 3.655-1.671c1.678 0 3.031 0.544 4.062 1.634 1.029 1.088 1.684 2.65 1.966 4.686 0.283 2.046 0.062 3.615-0.665 4.709s-1.93 1.64-3.608 1.64c-1.648 0-3.028-0.573-4.139-1.716-1.111-1.146-1.806-2.715-2.082-4.71zM402.324 337.652c0.385 2.774 1.451 4.963 3.201 6.569s3.933 2.408 6.549 2.408c2.487 0 4.33-0.773 5.529-2.318 1.199-1.543 1.61-3.678 1.233-6.403-0.367-2.652-1.418-4.794-3.152-6.425-1.733-1.629-3.869-2.445-6.406-2.445-2.476 0-4.345 0.79-5.603 2.369-1.259 1.58-1.709 3.662-1.352 6.245zM405.333 337.742c-0.268-1.935 0.003-3.459 0.813-4.572s2.028-1.671 3.655-1.671c1.678 0 3.031 0.544 4.062 1.634 1.029 1.088 1.684 2.65 1.966 4.686 0.283 2.046 0.062 3.615-0.665 4.709s-1.93 1.64-3.608 1.64c-1.648 0-3.028-0.573-4.139-1.716-1.112-1.146-1.806-2.715-2.082-4.71zM435.879 329.434h-4l-5.964 8.095h-0.060l-1.121-8.095h-2.936l3.443 24.865h2.936l-2.184-15.767h0.060l7.791 7.701h3.775l-8.609-8.081 6.867-8.719zM459.163 351.762c-0.509 0.294-1.083 0.441-1.721 0.441-1.839 0-2.915-1.155-3.236-3.464l-0.347-2.506h3.879l-0.341-2.461h-3.879l-1.985-14.339h-2.906l1.985 14.339h-2.831l0.341 2.461h2.831l0.366 2.643c0.25 1.802 0.957 3.217 2.123 4.245s2.537 1.542 4.116 1.542c0.838 0 1.494-0.096 1.967-0.289l-0.362-2.613zM458.242 337.652c0.385 2.774 1.451 4.963 3.201 6.569s3.933 2.408 6.549 2.408c2.487 0 4.33-0.773 5.529-2.318 1.199-1.543 1.61-3.678 1.233-6.403-0.367-2.652-1.418-4.794-3.152-6.425-1.733-1.629-3.869-2.445-6.406-2.445-2.476 0-4.345 0.79-5.603 2.369-1.259 1.58-1.709 3.662-1.352 6.245zM461.249 337.742c-0.268-1.935 0.003-3.459 0.813-4.572s2.028-1.671 3.655-1.671c1.678 0 3.031 0.544 4.062 1.634 1.029 1.088 1.684 2.65 1.966 4.686 0.283 2.046 0.062 3.615-0.665 4.709s-1.93 1.64-3.608 1.64c-1.648 0-3.028-0.573-4.139-1.716-1.111-1.146-1.806-2.715-2.082-4.71zM488.517 343.287c-0.44 0.354-1.090 0.53-1.949 0.53-1.139 0-2.152-0.538-3.039-1.618-0.889-1.079-1.455-2.499-1.699-4.26l-1.178-8.507h-2.936l2.326 16.8h2.936l-0.473-3.418h0.060c1.181 2.471 2.8 3.705 4.858 3.705 0.668 0 1.173-0.076 1.511-0.226l-0.418-3.006zM498.491 329.434l3.443 24.865h2.936l-3.443-24.865h-2.936zM521.225 337.074h-11.594c-0.197-1.793 0.095-3.177 0.879-4.155s1.999-1.465 3.646-1.465c1.857 0 3.643 0.603 5.358 1.808l-0.368-2.659c-1.604-1.042-3.607-1.564-6.013-1.564-2.397 0-4.161 0.769-5.29 2.309-1.13 1.538-1.504 3.676-1.127 6.41 0.356 2.572 1.387 4.694 3.090 6.364 1.704 1.671 3.65 2.507 5.836 2.507 2.167 0 3.762-0.706 4.785-2.119s1.359-3.39 1.007-5.931l-0.209-1.505zM518.619 339.459c0.201 1.519 0.008 2.693-0.575 3.524s-1.509 1.244-2.778 1.244c-1.169 0-2.241-0.44-3.217-1.321s-1.671-2.029-2.087-3.448h8.657zM523.651 333.064c1.327-1.085 2.845-1.626 4.553-1.626 2.287 0 3.536 0.759 3.745 2.278 0.090 0.649-0.085 1.183-0.527 1.604-0.442 0.42-1.387 0.919-2.834 1.496-1.733 0.749-2.825 1.49-3.273 2.226-0.447 0.734-0.6 1.622-0.454 2.666 0.206 1.489 0.993 2.682 2.361 3.577 1.366 0.895 2.958 1.345 4.776 1.345 1.408 0 2.682-0.249 3.823-0.744l-0.398-2.871c-1.127 0.809-2.473 1.215-4.041 1.215-0.938 0-1.731-0.208-2.379-0.622s-1.016-0.962-1.11-1.64c-0.093-0.669 0.047-1.189 0.42-1.565 0.372-0.375 1.246-0.855 2.624-1.443 1.751-0.699 2.899-1.422 3.445-2.172 0.545-0.749 0.741-1.676 0.588-2.78-0.213-1.538-1.003-2.752-2.369-3.639-1.365-0.885-3.037-1.328-5.014-1.328-1.718 0-3.17 0.328-4.356 0.987l0.421 3.038zM537.852 333.064c1.327-1.085 2.845-1.626 4.553-1.626 2.287 0 3.536 0.759 3.745 2.278 0.090 0.649-0.085 1.183-0.527 1.604-0.442 0.42-1.387 0.919-2.834 1.496-1.733 0.749-2.825 1.49-3.273 2.226-0.447 0.734-0.6 1.622-0.454 2.666 0.206 1.489 0.993 2.682 2.361 3.577 1.366 0.895 2.958 1.345 4.776 1.345 1.408 0 2.682-0.249 3.823-0.744l-0.398-2.871c-1.127 0.809-2.473 1.215-4.041 1.215-0.938 0-1.731-0.208-2.379-0.622s-1.016-0.962-1.11-1.64c-0.093-0.669 0.047-1.189 0.42-1.565 0.372-0.375 1.246-0.855 2.624-1.443 1.751-0.699 2.899-1.422 3.445-2.172 0.545-0.749 0.741-1.676 0.588-2.78-0.213-1.538-1.003-2.752-2.369-3.639-1.365-0.885-3.037-1.328-5.014-1.328-1.718 0-3.17 0.328-4.356 0.987l0.421 3.038zM555.698 333.216l-3.683-8.095h-2.127l2.979 8.095h2.831zM574.243 329.434h-2.936l0.387 2.795h-0.061c-1.502-2.126-3.526-3.19-6.072-3.19-2.098 0-3.66 0.756-4.69 2.271-1.027 1.513-1.363 3.557-1.008 6.129 0.385 2.774 1.391 5 3.021 6.676s3.573 2.514 5.831 2.514c2.256 0 3.771-0.891 4.542-2.673h0.060l1.432 10.344h2.936l-3.441-24.865zM572.705 339.428c0.187 1.347-0.094 2.472-0.842 3.379-0.749 0.906-1.762 1.359-3.040 1.359-1.558 0-2.868-0.589-3.931-1.77-1.062-1.179-1.735-2.786-2.016-4.821-0.259-1.875-0.033-3.355 0.682-4.443 0.712-1.089 1.788-1.634 3.225-1.634 1.417 0 2.65 0.534 3.697 1.604 1.048 1.068 1.68 2.397 1.901 3.987l0.323 2.34zM579.515 337.652c0.385 2.774 1.451 4.963 3.202 6.569s3.933 2.408 6.548 2.408c2.487 0 4.33-0.773 5.53-2.318 1.199-1.543 1.61-3.678 1.232-6.403-0.367-2.652-1.417-4.794-3.151-6.425-1.733-1.629-3.869-2.445-6.405-2.445-2.476 0-4.345 0.79-5.604 2.369s-1.71 3.662-1.353 6.245zM582.522 337.742c-0.268-1.935 0.003-3.459 0.813-4.572s2.028-1.671 3.655-1.671c1.678 0 3.031 0.544 4.063 1.634 1.028 1.088 1.684 2.65 1.966 4.686 0.283 2.046 0.062 3.615-0.665 4.709s-1.93 1.64-3.608 1.64c-1.648 0-3.028-0.573-4.139-1.716-1.113-1.146-1.807-2.715-2.083-4.71zM631.913 329.434h-2.936l1.335 9.646c0.253 1.821 0.152 3.125-0.299 3.91s-1.315 1.178-2.593 1.178c-1.079 0-2.072-0.512-2.984-1.534-0.91-1.023-1.462-2.233-1.656-3.631l-1.325-9.569h-2.936l1.377 9.949c0.442 3.191-0.551 4.785-2.978 4.785-1.118 0-2.112-0.486-2.98-1.459-0.869-0.971-1.408-2.212-1.617-3.722l-1.323-9.554h-2.936l2.326 16.8h2.936l-0.368-2.658h0.060c1.46 2.034 3.323 3.053 5.589 3.053 1.109 0 2.045-0.31 2.809-0.927 0.762-0.617 1.237-1.452 1.419-2.506 1.545 2.289 3.541 3.433 5.988 3.433 3.644 0 5.152-2.278 4.521-6.837l-1.432-10.357zM636.84 337.652c0.385 2.774 1.451 4.963 3.202 6.569s3.932 2.408 6.548 2.408c2.487 0 4.33-0.773 5.53-2.318 1.199-1.543 1.61-3.678 1.232-6.403-0.367-2.652-1.417-4.794-3.151-6.425-1.733-1.629-3.869-2.445-6.405-2.445-2.476 0-4.345 0.79-5.604 2.369s-1.71 3.662-1.353 6.245zM639.848 337.742c-0.268-1.935 0.003-3.459 0.813-4.572s2.028-1.671 3.656-1.671c1.678 0 3.031 0.544 4.062 1.634 1.028 1.088 1.684 2.65 1.966 4.686 0.283 2.046 0.062 3.615-0.665 4.709s-1.93 1.64-3.608 1.64c-1.648 0-3.028-0.573-4.139-1.716-1.113-1.146-1.807-2.715-2.083-4.71zM667.115 343.287c-0.44 0.354-1.090 0.53-1.949 0.53-1.139 0-2.152-0.538-3.039-1.618-0.889-1.079-1.455-2.499-1.699-4.26l-1.178-8.507h-2.936l2.326 16.8h2.936l-0.473-3.418h0.060c1.181 2.471 2.8 3.705 4.858 3.705 0.668 0 1.173-0.076 1.511-0.226l-0.418-3.006zM682.148 337.074h-11.594c-0.197-1.793 0.095-3.177 0.879-4.155s1.999-1.465 3.646-1.465c1.857 0 3.643 0.603 5.358 1.808l-0.368-2.659c-1.604-1.042-3.607-1.564-6.013-1.564-2.397 0-4.161 0.769-5.29 2.309-1.13 1.538-1.505 3.676-1.127 6.41 0.356 2.572 1.387 4.694 3.090 6.364s3.65 2.507 5.836 2.507c2.167 0 3.762-0.706 4.785-2.119s1.359-3.39 1.007-5.931l-0.209-1.505zM679.542 339.459c0.201 1.519 0.008 2.693-0.575 3.524s-1.509 1.244-2.778 1.244c-1.169 0-2.241-0.44-3.217-1.321s-1.671-2.029-2.087-3.448h8.657zM195.992 570.317c-5.77 1.904-11.126 1.411-14.404-1.867-5.776-5.776-2.904-18.015 6.416-27.335 4.033-4.033 8.612-6.858 12.978-8.298 5.723-1.888 11.080-1.394 14.357 1.882 5.776 5.776 2.904 18.015-6.416 27.335-4.033 4.033-8.612 6.858-12.978 8.298z" />
<glyph unicode="&#xe905;" glyph-name="ajax" d="M906.957 787.558c-13.517 13.517-29.901 20.275-48.845 20.275h-692.224c-19.046 0-35.328-6.758-48.947-20.275-13.517-13.517-20.275-29.901-20.275-48.845v-470.63c0-19.046 6.758-35.328 20.275-48.845s29.901-20.275 48.947-20.275h235.315c0-10.957-2.355-22.221-6.963-33.792s-9.216-21.606-13.824-30.31c-4.608-8.602-6.963-15.053-6.963-19.046 0-7.475 2.765-14.029 8.192-19.456 5.53-5.53 11.981-8.192 19.456-8.192h221.491c7.475 0 14.029 2.765 19.456 8.192 5.53 5.53 8.192 11.981 8.192 19.456 0 3.789-2.355 10.035-6.963 18.842s-9.216 19.046-13.824 30.72c-4.608 11.674-6.963 22.835-6.963 33.485h235.622c19.046 0 35.328 6.758 48.845 20.275s20.275 29.901 20.275 48.845v470.733c0.102 19.046-6.656 35.328-20.275 48.845zM871.936 378.778c0-3.789-1.331-6.963-4.096-9.728s-6.042-4.096-9.728-4.096h-692.224c-3.789 0-6.963 1.331-9.728 4.096s-4.096 6.042-4.096 9.728v359.936c0 3.789 1.331 6.963 4.096 9.728s6.042 4.096 9.728 4.096h692.224c3.789 0 6.963-1.331 9.728-4.096s4.096-6.042 4.096-9.728v-359.936zM553.984 527.053h-152.883v42.496c0 7.68-9.318 11.571-14.746 6.144l-70.963-71.066c-3.379-3.379-3.379-8.909 0-12.288l70.963-70.963c5.427-5.427 14.746-1.638 14.746 6.144v42.496h152.883c4.813 0 8.704 3.891 8.704 8.704v39.731c0 4.71-3.891 8.602-8.704 8.602zM637.645 696.013c-5.427 5.427-14.746 1.638-14.746-6.144v-42.496h-152.883c-4.813 0-8.704-3.891-8.704-8.704v-39.731c0-4.813 3.891-8.704 8.704-8.704h152.883v-44.954c0-7.782 9.523-11.571 14.848-6.042l71.066 73.523c3.277 3.379 3.277 8.806-0.102 12.186l-71.066 71.066z" />
<glyph unicode="&#xe906;" glyph-name="ps" d="M419.344 551.408c-8.416 1.728-25.344 2.608-50.752 2.608h-34.064v-108.192h38.592c27.792 0 46.368 1.984 55.744 5.984 9.376 3.984 16.72 10.224 22.032 18.72s7.984 18.368 7.984 29.648c0 13.872-3.728 25.312-11.2 34.336-7.456 8.992-16.912 14.64-28.336 16.896zM961.504 664.992l-279.008 279.008h-582.544c-20.688 0-37.456-16.656-37.456-37.2v-917.6c0-20.544 16.768-37.2 37.456-37.2h824.080c20.688 0 37.456 16.656 37.456 37.2l0.016 675.792zM519.888 442.176c-7.792-15.952-17.664-28.48-29.664-37.584s-24.176-15.136-36.576-18.080c-16.832-3.648-41.216-5.456-73.136-5.456h-45.984v-143.824h-70.528v381.264h113.168c42.88 0 70.832-1.904 83.872-5.728 20.016-5.728 36.768-18.16 50.272-37.312 13.504-19.168 20.256-43.904 20.256-74.256-0.016-23.392-3.904-43.072-11.68-59.024zM761.936 258.304c-19.376-18.208-48.048-27.312-86-27.312-34.464 0-61.744 7.632-81.84 22.88s-33.232 35.968-39.424 62.16l67.184 11.184c2.864-14.224 8.656-25.008 17.392-32.384s20.96-11.056 36.688-11.056c17.312 0 30.336 3.472 39.072 10.4 5.872 4.848 8.816 11.36 8.816 19.504 0 5.552-1.584 10.144-4.768 13.776-3.328 3.472-10.8 6.672-22.4 9.616-54 13.008-88.24 24.88-102.688 35.632-20.016 14.912-30.016 35.632-30.016 62.16 0 23.92 8.656 44.032 25.968 60.336 17.312 16.288 44.16 24.448 80.528 24.448 34.624 0 60.352-6.16 77.2-18.464 16.832-12.32 28.432-30.512 34.784-54.608l-63.136-12.752c-2.704 10.752-7.824 18.992-15.36 24.704-7.552 5.728-18.304 8.576-32.288 8.576-17.632 0-30.256-2.688-37.888-8.064-5.088-3.824-7.632-8.752-7.632-14.832 0-5.2 2.224-9.616 6.672-13.264 6.032-4.864 26.88-11.696 62.544-20.544s60.56-19.68 74.688-32.512c13.984-13.008 20.96-31.12 20.96-54.352 0-25.264-9.68-47.024-29.056-65.232z" />
<glyph unicode="&#xe907;" glyph-name="angular" d="M511.964 832l375.934-138.21-78.34-460.778-297.762-159.898-297.624 160.102-78.11 460.564 375.902 138.22zM511.962 896l-447.962-160 92.24-544 355.76-192 355.5 192 92.5 544-448.038 160zM688 256h80l-256 560-256-560h80l53.168 112h245.654l53.178-112zM427.146 448l84.838 178.712 84.854-178.712h-169.692z" />
<glyph unicode="&#xe908;" glyph-name="w3c" d="M511.98 959.908c282.757 0 511.99-229.197 511.99-511.954s-229.228-511.954-511.99-511.954-511.954 229.197-511.954 511.954 229.197 511.954 511.954 511.954zM629.051 304.707c27.927-16.986 64.571-25.444 110.027-25.444 51.66 0 92.995 13.254 124.116 39.691 31.090 26.442 46.628 61.188 46.628 104.39 0 31.014-10.055 56.918-30.205 77.646-20.114 20.8-47.585 32.99-82.249 36.727v1.259c64.039 17.944 96.046 58.367 96.046 121.187 0 34.060-12.425 61.792-37.188 83.206-24.804 21.374-57.64 32.078-98.559 32.078-41.944 0-78.599-9.107-109.981-27.276v-57.338c29.754 22.746 61.449 34.095 95.124 34.095 58.858 0 88.31-26.365 88.31-79.013 0-57.066-38.549-85.566-115.587-85.566h-38.094v-50.217h39.962c86.979 0 130.443-30.363 130.443-91.126 0-27.276-9.64-48.993-28.95-65.227-19.351-16.229-45.527-24.302-78.558-24.302-41.334 0-78.44 12.722-111.281 38.094v-62.867zM561.582 556.307l-72.804-276.823c-3.619-13.024-5.601-24.456-6.056-34.362h-3.046c-1.336 14.857-3.123 26.293-5.411 34.362l-78.179 276.823h-61.034l-80.273-275.446c-3.353-11.048-5.524-22.71-6.399-35.053h-2.708c-1.142 14.401-2.816 25.756-5.027 34.060l-74.513 276.439h-68.805l111.931-372.9h66.783l80.232 262.34c4.495 13.945 7.085 25.597 7.73 35.048h1.372c0.911-12.573 2.892-24.497 6.092-35.734l74.14-261.654h68.805l111.24 372.9h-64.070z" />
<glyph unicode="&#xe909;" glyph-name="jop" d="M480 896c-265.088 0-480-214.848-480-480s214.912-480 480-480c265.152 0 480 214.848 480 480s-214.848 480-480 480zM759.616 520.384l-64-64c-12.48-12.48-32.768-12.48-45.248 0l-64 64c-12.48 12.48-12.48 32.768 0 45.248s32.768 12.48 45.248 0l41.344-41.344 18.752 18.752-83.2 83.2-288.512-288.512v-81.728h82.752l182.656 182.656c12.48 12.48 32.768 12.48 45.248 0s12.48-32.768 0-45.248l-192-192c-6.016-6.016-14.144-9.408-22.656-9.408h-128c-17.664 0-32 14.336-32 32v126.976c0 8.512 3.392 16.64 9.344 22.656l320.512 320.512c12.48 12.48 32.768 12.48 45.248 0l128.512-128.512c12.48-12.48 12.48-32.768 0-45.248z" />
<glyph unicode="&#xe90a;" glyph-name="education" d="M512-59.466c280.897 0 508.609 227.712 508.609 508.609s-227.712 508.609-508.609 508.609c-280.897 0-508.609-227.712-508.609-508.609s227.712-508.609 508.609-508.609v0 0zM802.302 528.75v-101.329l24.455-27.962-46.948-40.651-42.904 40.651 25.806 28.698v83.827c-138.716-56.524-176.272-74.089-207.030-87.806-30.764-13.716-52.921-13.647-83.435-2.283-30.51 11.36-168.846 63.748-240.967 97.862-48.13 22.765-51.227 37.192 0.826 56.509 67.929 25.505 173.299 66.349 232.814 88.638 35.233 14.090 53.858 21.779 86.197 5.713 57.742-23.565 182.773-72.494 248.377-99.261 57.115-24.636 18.718-32.737 2.809-42.608v0 0 0 0 0zM562.37 382.145c33.545 13.683 78.775 36.301 128.092 57.181v-167.648c0 0-63.785-67.058-175.912-67.058-120.752 0-185.979 67.058-185.979 67.058v156.48c38.065-15.324 80.808-28.509 132.538-46.012 31.882-11.206 72.338-15.080 101.261 0v0 0 0 0 0z" />
<glyph unicode="&#xe90b;" glyph-name="hshy" horiz-adv-x="1365" d="M1237.756 960h-1110.183c-70.231 0-127.573-57.855-127.573-128.597v-766.717c0-71.086 56.917-128.686 127.573-128.686h1110.183c70.234 0 127.573 57.853 127.573 128.686v766.715c0 70.997-56.916 128.598-127.573 128.598zM256 64.425c0-23.805-18.263-43.092-43.096-43.092h-84.479c-23.807 0-43.092 18.263-43.092 43.092v84.478c0 23.809 18.261 43.096 43.092 43.096h84.565c23.723 0 43.010-18.263 43.010-43.096v-84.478zM256 405.762c0-23.809-18.263-43.096-43.096-43.096h-84.479c-23.807 0-43.092 18.263-43.092 43.096v84.478c0 23.809 18.261 43.092 43.092 43.092h84.565c23.723 0 43.010-18.263 43.010-43.092v-84.478zM256 747.094c0-23.809-18.263-43.094-43.096-43.094h-84.479c-23.807 0-43.092 18.261-43.092 43.094v84.479c0 23.807 18.261 43.092 43.092 43.092h84.565c23.723 0 43.010-18.261 43.010-43.092v-84.479zM1023.996 21.337h-682.665v853.33h682.663l0.002-853.33zM1280 64.425c0-23.805-18.267-43.092-43.096-43.092h-84.565c-23.723 0-43.008 18.263-43.008 43.092v84.478c0 23.809 18.263 43.096 43.094 43.096h84.565c23.723 0 43.010-18.263 43.010-43.096v-84.478zM1280 405.762c0-23.809-18.267-43.096-43.096-43.096h-84.565c-23.723 0-43.008 18.263-43.008 43.096v84.478c0 23.809 18.263 43.092 43.094 43.092h84.565c23.723 0 43.010-18.263 43.010-43.092v-84.478zM1280 747.094c0-23.809-18.267-43.094-43.096-43.094h-84.565c-23.723 0-43.008 18.261-43.008 43.094v84.479c0 23.807 18.263 43.092 43.094 43.092h84.565c23.723 0 43.010-18.261 43.010-43.092v-84.479zM598.759 218.92l-187.592-53.22 53.222 187.592 134.37-134.372zM966.745 586.938l-45.179-45.179-134.364 134.372 45.167 45.175s21.537 21.497 43.414-0.389c21.892-21.886 64.433-64.431 88.4-88.4 23.973-23.967 2.562-45.579 2.562-45.579zM908.044 528.271l-295.911-295.907-134.333 134.335 295.905 295.907 134.339-134.335z" />
<glyph unicode="&#xe90c;" glyph-name="QQ" d="M331.848 466.242l-0.966 2.971-0.774 3.897-0.539 2.145v8.761l0.928 3.434 0.964 3.669 1.235 3.819 1.68 4.247 2.219 4.438 3.125 4.437v3.127l0.308 2.895 0.465 3.976 1.352 4.4 1.235 4.826 0.981 2.198 1.141 2.065 1.464 2.296 1.583 1.678v10.98l0.925 5.655 0.927 6.561 1.66 7.854 2.277 8.161 1.698 4.496 1.679 4.903 1.832 4.554 2.203 4.9 2.237 5.327 2.585 5.036 2.896 5.347 3.667 5.346 1.678 3.047 1.814 2.529 3.918 5.636 4.013 5.634 4.594 5.809 4.902 5.654 5.326 5.558 5.558 5.732 6.715 6.176 4.287 3.744 5.19 4.033 5.267 3.589 5.71 3.434 5.484 3.051 6.174 2.508 6.562 3.145 6.525 2.141 6.521 2.201 7.024 2.202 7.024 1.697 7.409 1.369 7.489 1.216 14.78 2.008 7.876 0.425h23.275l7.757-0.964 7.794-0.926 7.954-0.849 7.37-1.757 7.796-1.679 7.316-1.889 8.010-2.143 7.331-2.604 7.025-2.973 7.489-3.125 6.85-3.436 6.637-3.803 6.505-4.206 5.633-3.878 2.588-2.22 2.742-1.602 5.206-4.437 4.403-4.265 4.36-4.419 4.284-4.901 3.509-4.71 4.172-4.902 2.933-5.248 2.952-4.669 3.145-5.404 2.585-4.748 4.4-9.997 2.16-5.171 1.679-4.804 1.68-5.19 1.505-4.883 1.080-4.189 1.353-4.977 2.39-8.839 1.526-7.719 0.983-7.468 0.849-6.019 1.353-9.166 0.308-1.448 1.081-1.679 2.896-4.728 1.851-3.185 1.66-3.377 2.123-3.569 1.852-4.284 1.196-4.439 1.311-4.787 1.003-4.958 0.465-2.452 0.387-2.97v-2.589l-0.388-2.604v-3.222l-0.774-3.107-1.389-6.041-1.584-3.049-1.154-3.434v-0.829l0.538-1.064 1.583-2.528 6.872-10.149 5.44-7.622 2.583-5.116 3.514-5.577 3.052-6.097 3.511-6.559 3.513-7.336 3.956-8.3 2.22-5.11 2.044-4.959 1.776-5.27 1.738-4.731 1.312-4.958 1.35-4.651 1.703-9.088 1.347-9.302 0.925-8.242v-11.597l-0.617-4.132-0.887-7.080-1.235-6.408-1.89-5.786-0.695-2.377-1.312-2.838-1.119-1.967-1.467-2.452-1.312-1.526-1.659-1.986-1.469-1.599-1.58-1.372-1.893-0.832-1.701-0.846-1.389-0.464h-2.121l-1.37 0.464-2.604 1.292-1.197 0.829-1.234 0.928-1.367 1.234-1.371 1.351-2.277 2.527-2.704 3.569-2.12 3.687-2.127 2.951-2.064 3.436-2.913 6.114-3.279 6.351-0.387 0.215h-0.54l-1.352-0.981-0.772-1.68-1.272-2.067-2.239-6.176-3.358-8.782-4.325-10.514-3.242-5.286-3.417-5.483-4.031-6.174-4.286-6.043-2.198-2.738-2.665-2.973-6.116-6.040 0.537-0.52 0.832-0.85 3.052-1.83 12.735-6.101 5.559-3.126 5.287-3.050 5.25-3.82 4.671-3.973 2.279-1.74 1.699-2.067 1.735-2.375 1.467-2.583 0.771-2.141 0.967-2.606 0.387-2.198 0.462-2.589-0.462-1.757v-1.752l-0.387-1.838-0.967-1.674-0.383-1.312-0.852-1.585-2.314-3.128-2.121-2.53-1.66-1.907-1.391-1.371-3.511-2.588-3.977-2.215-4.246-2.14-4.516-2.065-5.096-1.971-2.703-0.85-2.428-0.676-5.868-1.366-6.097-1.314-6.101-1.293-6.638-1.064-6.869-0.308-7.024-0.847h-21.809l-7.874 0.466-7.334 0.69-7.873 1.063-7.834 0.831-8.26 1.154-7.987 1.987-7.8 1.527-7.756 2.198-7.954 2.841-7.794 2.372-4.091 1.347-3.666 1.318-2.318 0.904-2.275 0.444h-6.487l-7.484 0.543-3.804 0.384-4.883 0.542-3.128-2.817-4.282-2.665-5.79-2.838-6.405-3.511-3.9-1.912-4.051-1.507-8.994-3.661-4.883-1.234-5.115-1.374-7.104-1.369-4.436-0.386-4.707-0.386-4.903-0.54-5.712-0.232h-23.33l-13.183 0.232-12.777 1.312-6.481 0.908-12.353 1.836-6.099 1.234-5.654 1.812-5.654 1.314-5.095 2.043-4.822 1.912-4.478 2.143-3.897 2.354-3.9 2.834-1.312 1.372-1.736 1.66-1.313 1.469-1.196 1.674-1.083 1.685-0.847 1.674-1.218 3.573-0.443 1.85-0.54 2.046v1.913l0.54 2.139v2.144l0.443 2.142v4.267l0.213 2.295 1.005 2.586 0.846 2.586 1.544 3.124 1.119 1.236 0.927 1.37 2.431 2.971 1.929 1.527 1.814 1.080 1.68 1.351 2.681 0.85 2.122 1.293 2.665 1.368 3.049 0.931 3.049 0.921 3.514 0.753 3.355 0.444 3.977 0.542 4.284 0.307 1.139 0.39h0.231l0.541 0.457v0.525l-0.773 1.061-2.295 1.083-5.712 4.958-3.822 3.050-4.438 3.875-4.478 4.366-4.67 5.553-5.324 6.252-2.009 3.376-2.664 3.495-2.276 4.051-2.046 4.44-2.781 4.185-1.812 4.805-2.14 4.805-2.145 5.346-1.581 5.095-1.467 6.349-0.463 0.23h-0.444l-0.231 0.445h-0.54l-0.907-0.445-0.463-0.23-0.619-1.062-0.231-1.312-0.462-1.138-0.81-1.912-2.627-4.651-1.35-2.835-2.142-2.435-2.296-2.968-2.509-3.284-2.662-2.896-3.126-2.814-2.914-2.666-3.185-2.082-3.512-2.201-3.358-1.31-3.977-0.985-3.898-0.365h-0.926l-0.89 0.365-0.693 1.525-1.159 0.771-1.504 3.669-0.926 1.967-1.004 2.838-0.83 2.951-0.444 2.915-1.234 6.635-0.463 3.903v12.811l0.463 9.535 0.772 4.879 0.907 5.040 0.83 5.421 1.466 5.016 1.66 5.829 1.697 5.637 2.279 5.79 2.143 5.572 2.951 5.655 2.78 6.097 3.357 5.712 3.954 6.179 4.035 5.578 4.207 6.172 3.514 4.266 4.496 4.979 4.728 4.939 2.201 2.374 2.682 2.682 3.878 3.358 3.976 3.434 6.484 5.79 4.9 3.589zM511.418 1.2c-60.388 0-118.972 11.828-174.132 35.155-53.273 22.534-101.113 54.786-142.192 95.862-41.079 41.081-73.332 88.917-95.865 142.187-23.328 55.156-35.159 113.738-35.159 174.123s11.832 118.969 35.159 174.126c22.533 53.27 54.786 101.107 95.865 142.185s88.92 73.33 142.192 95.86c55.161 23.328 113.744 35.158 174.131 35.158s118.971-11.828 174.129-35.158c53.273-22.531 101.113-54.783 142.192-95.86 41.078-41.079 73.332-88.917 95.866-142.184 23.33-55.158 35.159-113.74 35.159-174.126 0-60.383-11.83-118.965-35.159-174.123-22.534-53.272-54.788-101.108-95.866-142.187-41.079-41.078-88.92-73.328-142.192-95.862-55.157-23.326-113.742-35.155-174.129-35.155zM511.418 870.228c-232.536 0-421.718-189.173-421.718-421.699s189.181-421.699 421.718-421.699c232.533 0 421.716 189.173 421.717 421.699s-189.181 421.699-421.717 421.699z" />
<glyph unicode="&#xe90d;" glyph-name="weibo" d="M726.64 489.219c-34.779 6.722-17.844 25.089-17.844 25.089s34.022 55.406-6.806 95.73c-50.5 49.878-173.429-6.276-173.429-6.276-46.877-14.333-34.478 6.572-27.824 42.116 0 41.966-14.518 112.899-139.563 71.084-124.894-42.263-232.1-189.958-232.1-189.958-74.541-98.118-64.713-173.983-64.713-173.983 18.596-167.562 198.984-213.557 339.302-224.462 147.577-11.349 346.866 50.182 407.194 176.822 60.486 126.791-49.291 176.969-84.218 183.838v0zM414.55 175.752c-146.518-6.718-265.061 65.71-265.061 162.184 0 96.624 118.543 173.984 265.061 180.705 146.669 6.718 265.364-53.018 265.364-149.341 0-96.328-118.696-186.976-265.364-193.548v0zM385.367 455.169c-147.425-17.023-130.338-153.224-130.338-153.224s-1.509-43.16 39.467-65.114c86.183-46.145 175.093-18.216 219.849 38.981 44.908 57.047 18.6 196.234-128.978 179.358v0zM348.17 263.862c-27.516-3.135-49.743 12.547-49.743 35.248 0 22.551 19.654 46.296 47.173 49.13 31.604 2.989 52.167-14.935 52.167-37.783 0.152-22.551-22.228-43.461-49.596-46.596v0zM435.116 336.892c-9.377-6.869-20.866-5.975-25.708 2.388-5.14 8.067-3.174 20.91 6.201 27.629 10.885 8.067 22.227 5.674 27.216-2.388 4.841-8.067 1.361-20.458-7.71-27.629v0zM798.459 548.211c11.946 0 21.927 8.66 23.74 20.008 0.153 0.897 0.3 1.646 0.3 2.543 17.997 159.646-132.605 132.165-132.605 132.165-13.307 0-24.040-10.6-24.040-24.041 0-13.144 10.734-23.749 24.040-23.749 108.112 23.598 84.375-83.18 84.375-83.18-0.152-13.144 10.734-23.746 24.19-23.746v0zM780.919 826.882c-52.013 12.095-105.693 1.64-120.662-1.195-1.209-0.151-2.266-1.198-3.323-1.345-0.457-0.151-0.908-0.597-0.908-0.597-14.817-4.184-25.555-17.623-25.555-33.603 0-18.968 15.573-34.646 35.078-34.646 0 0 18.901 2.538 31.756 7.466 12.699 5.076 120.657 3.732 174.184-84.976 29.186-64.813 12.856-108.123 10.738-115.142 0 0-6.954-16.877-6.954-33.452 0-19.115 15.574-31.215 35.078-31.215 16.179 0 29.786 2.243 33.717 29.273h0.153c57.761 189.215-70.16 278.072-163.302 299.43v0z" />
<glyph unicode="&#xe90e;" glyph-name="weixin" d="M669.029 642.604c10.181 0 20.236-0.748 30.238-1.865-27.167 126.533-162.436 220.531-316.852 220.531-172.618 0-314.035-117.66-314.035-267.067 0-86.242 47.044-157.061 125.674-211.988l-31.407-94.468 109.755 55.053c39.303-7.781 70.81-15.765 110.011-15.765 9.85 0 19.625 0.482 29.323 1.243-6.144 20.996-9.698 42.983-9.698 65.792 0.002 137.197 117.807 248.533 266.991 248.533zM500.168 727.743c23.639 0 39.303-15.55 39.303-39.185 0-23.536-15.664-39.3-39.303-39.3-23.536 0-47.147 15.765-47.147 39.3 0.001 23.635 23.612 39.185 47.147 39.185zM280.403 649.257c-23.537 0-47.3 15.765-47.3 39.3 0 23.635 23.764 39.185 47.3 39.185s39.2-15.55 39.2-39.185c0-23.535-15.665-39.3-39.2-39.3zM955.618 397.853c0 125.543-125.622 227.882-266.734 227.882-149.413 0-267.091-102.339-267.091-227.882 0-125.77 117.678-227.879 267.091-227.879 31.279 0 62.838 7.897 94.243 15.765l86.12-47.17-23.613 78.473c63.041 47.286 109.983 109.993 109.983 180.811zM602.307 437.142c-15.639 0-31.431 15.549-31.431 31.417 0 15.651 15.792 31.405 31.431 31.405 23.74 0 39.303-15.755 39.303-31.405 0-15.867-15.563-31.417-39.303-31.417zM775.028 437.142c-15.539 0-31.202 15.549-31.202 31.417 0 15.651 15.664 31.405 31.202 31.405 23.536 0 39.301-15.755 39.301-31.405 0.001-15.867-15.765-31.417-39.301-31.417z" />
</font>
</defs>
</svg>
